<?xml version="1.0" encoding="utf-8"?>
<!-- Generator: Adobe Illustrator 22.0.0, SVG Export Plug-In . SVG Version: 6.00 Build 0)  -->
<svg version="1.1" id="Слой_1" xmlns="http://www.w3.org/2000/svg" xmlns:xlink="http://www.w3.org/1999/xlink" x="0px" y="0px"
	 viewBox="0 0 23 16" style="enable-background:new 0 0 23 16;" xml:space="preserve">
<style type="text/css">
	.st0{fill:#FFFFFF;}
</style>
<g>
	<path class="st0" d="M15.8,9.3c1,0,2.1,0,3.1,0c1.8,0,3.3,1.1,3.9,2.8c0.1,0.4,0.2,0.8,0.2,1.3c0,0.5,0,1,0,1.6c0,0.6-0.4,1-1,1
		c-0.6,0-1-0.4-1-1c0-0.5,0-1,0-1.5c0-1.2-0.9-2.1-2.1-2.1c-2,0-4,0-6.1,0c-1.2,0-2.1,0.9-2.1,2.2c0,0.5,0,1,0,1.5c0,0.6-0.4,1-1,1
		c-0.6,0-1-0.4-1-1c0-0.6,0-1.3,0-1.9c0.1-1.8,1.6-3.4,3.4-3.7c0.3,0,0.5-0.1,0.8-0.1C13.8,9.3,14.8,9.3,15.8,9.3z"/>
	<path class="st0" d="M15.7,8.2c-2.2,0-4.1-1.9-4-4.2c0-2.2,1.9-4.1,4.2-4c2.2,0,4.1,1.9,4,4.2C19.9,6.5,18,8.3,15.7,8.2z M15.8,6.2
		c1.1,0,2.1-1,2.1-2.1c0-1.1-1-2.1-2.1-2.1c-1.1,0-2.1,1-2.1,2.1C13.7,5.3,14.7,6.2,15.8,6.2z"/>
	<path class="st0" d="M5,4.6c0.6,0,1.2,0,1.9,0c0.1,0,0.2,0,0.3,0C7.7,4.7,8.1,5.2,8,5.8c0,0.5-0.5,0.9-1,0.9c-0.6,0-1.2,0-1.8,0
		c-0.1,0-0.1,0-0.2,0c0,0.1,0,0.1,0,0.2c0,0.6,0,1.2,0,1.8c0,0.6-0.4,1-1,1c-0.6,0-1-0.4-1-1c0-0.6,0-1.2,0-1.8c0-0.1,0-0.1,0-0.2
		c-0.1,0-0.1,0-0.2,0c-0.6,0-1.2,0-1.8,0c-0.6,0-1-0.4-1-1c0-0.6,0.4-1,1-1c0.7,0,1.3,0,2,0c0-0.1,0-0.1,0-0.2c0-0.6,0-1.2,0-1.8
		c0-0.4,0.2-0.7,0.5-0.9c0.3-0.2,0.7-0.2,1,0C4.9,2,5,2.3,5,2.6c0,0.6,0,1.2,0,1.8C5,4.5,5,4.6,5,4.6z"/>
</g>
</svg>
