<svg width="26" height="22" viewBox="0 0 26 22" fill="none" xmlns="http://www.w3.org/2000/svg">
<path d="M18.4545 20.6364V18.4546C18.4545 17.2973 17.9948 16.1874 17.1765 15.369C16.3581 14.5507 15.2482 14.0909 14.0909 14.0909H5.36364C4.20633 14.0909 3.09642 14.5507 2.27808 15.369C1.45974 16.1874 1 17.2973 1 18.4546V20.6364" stroke="white" stroke-width="2" stroke-linecap="round" stroke-linejoin="round"/>
<path d="M9.72741 9.72727C12.1374 9.72727 14.091 7.77361 14.091 5.36364C14.091 2.95367 12.1374 1 9.72741 1C7.31744 1 5.36377 2.95367 5.36377 5.36364C5.36377 7.77361 7.31744 9.72727 9.72741 9.72727Z" stroke="white" stroke-width="2" stroke-linecap="round" stroke-linejoin="round"/>
<path d="M24.9998 20.6362V18.4544C24.9991 17.4875 24.6773 16.5483 24.0849 15.7842C23.4926 15.02 22.6632 14.4743 21.7271 14.2325" stroke="white" stroke-width="2" stroke-linecap="round" stroke-linejoin="round"/>
<path d="M17.3638 1.14172C18.3024 1.38205 19.1344 1.92794 19.7285 2.69333C20.3226 3.45873 20.6451 4.40008 20.6451 5.369C20.6451 6.33791 20.3226 7.27926 19.7285 8.04466C19.1344 8.81005 18.3024 9.35594 17.3638 9.59627" stroke="white" stroke-width="2" stroke-linecap="round" stroke-linejoin="round"/>
</svg>
