<?xml version="1.0" encoding="utf-8"?>
<!-- Generator: Adobe Illustrator 22.0.0, SVG Export Plug-In . SVG Version: 6.00 Build 0)  -->
<svg version="1.1" id="Слой_1" xmlns="http://www.w3.org/2000/svg" xmlns:xlink="http://www.w3.org/1999/xlink" x="0px" y="0px"
	 viewBox="0 0 10 12" style="enable-background:new 0 0 10 12;" xml:space="preserve">
<style type="text/css">
	.st0{fill:#6DACDE;}
</style>
<path class="st0" d="M0,6c0-1.4,0-2.7,0-4.1c0-0.5,0.1-1,0.5-1.3C1.1-0.1,2-0.2,2.8,0.3c1.6,1,3.2,2,4.8,3c0.5,0.3,1.1,0.7,1.6,1
	c1,0.6,1.1,2,0.4,2.8C9.3,7.5,9,7.7,8.7,7.9c-1.1,0.7-2.3,1.4-3.4,2.2c-0.9,0.6-1.8,1.1-2.7,1.7C1.5,12.4,0,11.6,0,10.1
	c0-0.9,0-1.7,0-2.6C0,7,0,6.5,0,6z"/>
</svg>
