<svg width="22" height="22" viewBox="0 0 22 22" fill="none" xmlns="http://www.w3.org/2000/svg">
<path fill-rule="evenodd" clip-rule="evenodd" d="M0 18.7C0 20.5227 1.4773 22 3.3 22H18.7C20.5227 22 22 20.5227 22 18.7V3.3C22 1.4773 20.5227 0 18.7 0H3.3C1.4773 0 0 1.4773 0 3.3V18.7ZM19.8 18.7C19.8 19.3072 19.3072 19.8 18.7 19.8H3.3C2.6928 19.8 2.2 19.3072 2.2 18.7V3.3C2.2 2.6928 2.6928 2.2 3.3 2.2H8.8V11.0121H11.4345L13.2 8.65042L14.9655 11.0121H17.6V2.2H18.7C19.3072 2.2 19.8 2.6928 19.8 3.3V18.7ZM15.4 2.2H11V8.0696L13.2 5.12597L15.4 8.0696V2.2Z" fill="white"/>
</svg>
